<?xml version="1.0" encoding="utf-8"?>
<svg viewBox="0 0 500 500" xmlns="http://www.w3.org/2000/svg">
  <path d="M 487.041 206.081 L 305.769 16.988 C 298.851 9.74 289.57 6.944 280.495 7.725 L 220.66 7.725 C 211.586 6.944 202.303 9.74 195.386 16.988 L 158.582 55.385 L 158.582 7.725 L 66.584 7.725 L 66.584 151.361 L 14.116 206.081 C 7.168 213.329 4.504 222.998 5.252 232.449 L 5.252 295.651 C 5.252 313.32 18.968 327.644 35.916 327.644 L 66.583 327.644 L 66.583 487.603 C 66.583 505.271 80.298 519.595 97.248 519.595 L 403.908 519.595 C 420.858 519.595 434.573 505.271 434.573 487.603 L 434.573 327.645 L 465.238 327.645 C 482.19 327.645 495.904 313.32 495.904 295.652 L 495.904 232.45 C 496.655 222.998 493.989 213.329 487.041 206.081 Z M 434.573 263.66 L 373.242 263.66 L 373.242 455.611 L 311.911 455.611 L 311.911 327.645 L 189.247 327.645 L 189.247 455.612 L 127.916 455.612 L 127.916 263.66 L 66.584 263.66 L 66.584 245.914 L 233.568 71.708 L 267.589 71.708 L 434.573 245.914 L 434.573 263.66 Z" style="fill: rgb(255, 255, 255);"/>
</svg>
