<?xml version="1.0" encoding="utf-8"?>
<svg viewBox="0 0 500 500" xmlns="http://www.w3.org/2000/svg">
  <g transform="matrix(1, 0, 0, 1, -79.357681, 30.768848)">
    <g transform="matrix(1, 0, 0, 1, 98.834801, -14.347723)">
      <g id="exit-to-app">
        <path d="M181.05,321.3l35.7,35.7l127.5-127.5L216.75,102l-35.7,35.7l66.3,66.3H0v51h247.35L181.05,321.3z M408,0H51 C22.95,0,0,22.95,0,51v102h51V51h357v357H51V306H0v102c0,28.05,22.95,51,51,51h357c28.05,0,51-22.95,51-51V51 C459,22.95,436.05,0,408,0z" style="fill: rgb(255, 255, 255);"/>
      </g>
    </g>
    <g transform="matrix(1, 0, 0, 1, 98.834801, -14.347723)"/>
    <g transform="matrix(1, 0, 0, 1, 98.834801, -14.347723)"/>
    <g transform="matrix(1, 0, 0, 1, 98.834801, -14.347723)"/>
    <g transform="matrix(1, 0, 0, 1, 98.834801, -14.347723)"/>
    <g transform="matrix(1, 0, 0, 1, 98.834801, -14.347723)"/>
    <g transform="matrix(1, 0, 0, 1, 98.834801, -14.347723)"/>
    <g transform="matrix(1, 0, 0, 1, 98.834801, -14.347723)"/>
    <g transform="matrix(1, 0, 0, 1, 98.834801, -14.347723)"/>
    <g transform="matrix(1, 0, 0, 1, 98.834801, -14.347723)"/>
    <g transform="matrix(1, 0, 0, 1, 98.834801, -14.347723)"/>
    <g transform="matrix(1, 0, 0, 1, 98.834801, -14.347723)"/>
    <g transform="matrix(1, 0, 0, 1, 98.834801, -14.347723)"/>
    <g transform="matrix(1, 0, 0, 1, 98.834801, -14.347723)"/>
    <g transform="matrix(1, 0, 0, 1, 98.834801, -14.347723)"/>
    <g transform="matrix(1, 0, 0, 1, 98.834801, -14.347723)"/>
  </g>
</svg>
