<?xml version="1.0" encoding="utf-8"?>
<svg viewBox="0 0 500 500" xmlns="http://www.w3.org/2000/svg">
  <path d="M 428.181 22.225 L 73.06 22.225 C 33.934 22.225 2.101 54.973 2.101 95.225 L 2.101 396.559 C 2.101 436.811 33.934 469.559 73.06 469.559 L 428.181 469.559 C 467.308 469.559 499.141 436.811 499.141 396.559 L 499.141 95.225 C 499.141 54.973 467.308 22.225 428.181 22.225 Z M 458.315 396.558 C 458.315 413.652 444.797 427.558 428.181 427.558 L 73.06 427.558 C 56.445 427.558 42.927 413.652 42.927 396.558 L 42.927 95.225 C 42.927 78.131 56.445 64.225 73.06 64.225 L 428.181 64.225 C 444.797 64.225 458.315 78.131 458.315 95.225 Z" style="fill: rgb(255, 255, 255);"/>
  <path d="M 178.042 256.892 L 167.349 256.892 L 167.349 117.892 C 167.349 106.294 158.21 96.892 146.936 96.892 C 135.662 96.892 126.523 106.294 126.523 117.892 L 126.523 256.892 L 115.831 256.892 C 104.557 256.892 95.418 266.294 95.418 277.892 C 95.418 289.49 104.557 298.892 115.831 298.892 L 178.042 298.892 C 189.315 298.892 198.455 289.49 198.455 277.892 C 198.455 266.294 189.315 256.892 178.042 256.892 Z" style="fill: rgb(255, 255, 255);"/>
  <path d="M 146.936 320.892 C 135.662 320.892 126.523 330.294 126.523 341.892 L 126.523 352.559 C 126.523 364.157 135.662 373.559 146.936 373.559 C 158.21 373.559 167.349 364.157 167.349 352.559 L 167.349 341.892 C 167.349 330.294 158.21 320.892 146.936 320.892 Z" style="fill: rgb(255, 255, 255);"/>
  <path d="M 385.411 256.892 L 374.719 256.892 L 374.719 117.892 C 374.719 106.294 365.58 96.892 354.306 96.892 C 343.032 96.892 333.893 106.294 333.893 117.892 L 333.893 256.892 L 323.2 256.892 C 311.927 256.892 302.787 266.294 302.787 277.892 C 302.787 289.49 311.927 298.892 323.2 298.892 L 385.411 298.892 C 396.685 298.892 405.824 289.49 405.824 277.892 C 405.824 266.294 396.685 256.892 385.411 256.892 Z" style="fill: rgb(255, 255, 255);"/>
  <path d="M 354.306 320.892 C 343.032 320.892 333.893 330.294 333.893 341.892 L 333.893 352.559 C 333.893 364.157 343.032 373.559 354.306 373.559 C 365.58 373.559 374.719 364.157 374.719 352.559 L 374.719 341.892 C 374.719 330.294 365.58 320.892 354.306 320.892 Z" style="fill: rgb(255, 255, 255);"/>
  <path d="M 281.727 160.892 L 271.034 160.892 L 271.034 117.892 C 271.034 106.294 261.895 96.892 250.621 96.892 C 239.348 96.892 230.208 106.294 230.208 117.892 L 230.208 160.892 L 219.516 160.892 C 208.242 160.892 199.103 170.294 199.103 181.892 C 199.103 193.49 208.242 202.892 219.516 202.892 L 281.727 202.892 C 293.001 202.892 302.14 193.49 302.14 181.892 C 302.14 170.294 293.001 160.892 281.727 160.892 Z" style="fill: rgb(255, 255, 255);"/>
  <path d="M 250.621 224.892 C 239.348 224.892 230.208 234.294 230.208 245.892 L 230.208 352.559 C 230.208 364.157 239.348 373.559 250.621 373.559 C 261.895 373.559 271.034 364.157 271.034 352.559 L 271.034 245.892 C 271.034 234.294 261.895 224.892 250.621 224.892 Z" style="fill: rgb(255, 255, 255);"/>
</svg>