<?xml version="1.0" encoding="utf-8"?>
<svg viewBox="0 0 500 500" xmlns="http://www.w3.org/2000/svg">
  <path d="M 413.471 66.831 C 316.079 -33.083 158.43 -33.099 61.024 66.831 C -36.369 166.744 -36.384 328.47 61.024 428.397 C 158.416 528.311 316.064 528.327 413.471 428.397 C 510.864 328.485 510.878 166.759 413.471 66.831 Z M 237.247 461.281 C 122.402 461.281 28.969 365.43 28.969 247.614 C 28.969 129.798 122.403 33.947 237.247 33.947 C 352.09 33.947 445.524 129.798 445.524 247.614 C 445.524 365.43 352.091 461.281 237.247 461.281 Z" style="fill: rgb(255, 255, 255);"/>
  <path d="M 311.273 122.164 L 253.21 151.947 L 195.656 151.947 C 155.703 151.947 123.198 185.293 123.198 226.281 C 123.198 260.866 146.342 290.011 177.576 298.271 L 185.789 357.25 C 187.384 368.699 197.722 376.712 208.949 375.069 C 220.14 373.428 227.917 362.792 226.319 351.31 L 219.258 300.613 L 251.845 300.613 L 309.073 339.753 C 322.662 349.046 340.899 339.024 340.899 322.28 L 340.899 140.947 C 340.899 125.368 324.883 115.186 311.273 122.164 Z M 299.958 283.042 C 268.225 261.34 266.312 258.614 258.043 258.614 L 195.657 258.614 C 178.278 258.614 164.139 244.109 164.139 226.28 C 164.139 208.452 178.278 193.947 195.657 193.947 L 258.043 193.947 C 264.466 193.947 264.557 193.085 299.958 174.926 Z" style="fill: rgb(255, 255, 255);"/>
</svg>