<?xml version="1.0" encoding="utf-8"?>
<svg viewBox="0 0 500 500" xmlns="http://www.w3.org/2000/svg">
  <path d="M 421.796 74.108 C 324.938 -25.805 168.157 -25.82 71.285 74.108 C -25.573 174.02 -25.589 335.748 71.285 435.675 C 168.143 535.588 324.924 535.603 421.796 435.675 C 518.654 335.763 518.669 174.035 421.796 74.108 Z M 246.54 468.558 C 132.326 468.558 39.406 372.707 39.406 254.891 C 39.406 137.075 132.326 41.225 246.54 41.225 C 360.753 41.225 453.673 137.076 453.673 254.892 C 453.673 372.708 360.754 468.558 246.54 468.558 Z" style="fill: rgb(255, 255, 255);"/>
  <path d="M 328.028 161.442 L 265.985 129.442 C 252.478 122.475 236.523 132.617 236.523 148.225 L 236.523 255.225 L 215.518 255.225 C 181.486 255.225 153.798 283.786 153.798 318.892 C 153.798 353.998 181.486 382.559 215.518 382.559 C 249.551 382.559 277.238 353.998 277.238 318.892 C 277.238 302.367 277.238 198.78 277.238 182.204 L 309.82 199.008 C 319.878 204.194 332.105 199.99 337.133 189.616 C 342.161 179.242 338.084 166.629 328.028 161.442 Z M 236.523 318.891 C 236.523 330.838 227.1 340.558 215.518 340.558 C 203.936 340.558 194.514 330.838 194.514 318.891 C 194.514 306.944 203.936 297.224 215.518 297.224 L 236.523 297.224 Z" style="fill: rgb(255, 255, 255);"/>
</svg>
