<?xml version="1.0" encoding="utf-8"?>
<svg id="Layer_1" enable-background="new 0 0 511.448 511.448" height="512" viewBox="0 0 511.448 511.448" width="512" xmlns="http://www.w3.org/2000/svg">
  <path d="m436.507 74.94c-99.913-99.913-261.64-99.927-361.567 0-99.913 99.913-99.928 261.64 0 361.567 99.913 99.913 261.639 99.928 361.567 0 99.914-99.911 99.93-261.639 0-361.567zm-180.783 394.451c-117.816 0-213.667-95.851-213.667-213.666s95.851-213.667 213.667-213.667 213.667 95.851 213.667 213.667-95.851 213.666-213.667 213.666z"/>
  <path d="M 347.952 236.143 L 230.619 140.143 C 216.928 128.941 196.321 138.714 196.321 156.396 L 196.321 208.081 L 197.017 206.497 C 196.299 208.141 205.832 213.102 196.83 206.625 L 196.295 208.141 C 196.295 225.932 196.473 348.909 199.071 207.803 L 196.321 296.711 L 196.321 348.396 C 196.321 366.068 216.924 375.856 230.619 364.649 L 347.952 268.649 C 358.182 260.279 358.252 244.57 347.952 236.143 Z M 198.299 207.332 L 198.265 207.246 L 199.127 207.453 L 198.299 207.332 Z M 238.321 304.081 L 238.321 200.711 L 301.491 252.396 L 238.321 304.081 Z"/>
</svg>