<?xml version="1.0" encoding="utf-8"?>
<svg id="Layer_1" enable-background="new 0 0 511.448 511.448" height="512" viewBox="0 0 511.448 511.448" width="512" xmlns="http://www.w3.org/2000/svg">
  <path d="m436.507 74.94c-99.913-99.913-261.64-99.927-361.567 0-99.913 99.913-99.928 261.64 0 361.567 99.913 99.913 261.639 99.928 361.567 0 99.914-99.911 99.93-261.639 0-361.567zm-180.783 394.451c-117.816 0-213.667-95.851-213.667-213.666s95.851-213.667 213.667-213.667 213.667 95.851 213.667 213.667-95.851 213.666-213.667 213.666z"/>
  <path d="M 311.181 234.293 L 193.848 138.293 C 180.157 127.091 159.55 136.864 159.55 154.546 L 159.55 206.231 L 160.246 204.647 C 159.528 206.291 169.061 211.252 160.059 204.775 L 159.524 206.291 C 159.524 224.082 159.702 347.059 162.3 205.953 L 159.55 294.861 L 159.55 346.546 C 159.55 364.218 180.153 374.006 193.848 362.799 L 311.181 266.799 C 321.411 258.429 321.481 242.72 311.181 234.293 Z M 161.528 205.482 L 161.494 205.396 L 162.356 205.603 L 161.528 205.482 Z M 201.55 302.231 L 201.55 198.861 L 264.72 250.546 L 201.55 302.231 Z" transform="matrix(-1, 0, 0, -1, 478.403763, 501.092392)"/>
</svg>