<?xml version="1.0" encoding="utf-8"?>
<svg id="Layer_1" enable-background="new 0 0 511.448 511.448" height="512" viewBox="0 0 511.448 511.448" width="512" xmlns="http://www.w3.org/2000/svg" xmlns:bx="https://boxy-svg.com">
  <path d="m436.507 74.94c-99.913-99.913-261.64-99.927-361.567 0-99.913 99.913-99.928 261.64 0 361.567 99.913 99.913 261.639 99.928 361.567 0 99.914-99.911 99.93-261.639 0-361.567zm-180.783 394.451c-117.816 0-213.667-95.851-213.667-213.666s95.851-213.667 213.667-213.667 213.667 95.851 213.667 213.667-95.851 213.666-213.667 213.666z"/>
  <g transform="matrix(1, 0, 0, 1, -0.508052, 27.353226)">
    <line style="stroke: rgb(0, 0, 0); stroke-width: 31px;" x1="122.497" y1="353.184" x2="264.745" y2="207.044"/>
    <path d="M 709.285 395.438 m -69.897 0 a 69.897 69.897 0 1 0 139.794 0 a 69.897 69.897 0 1 0 -139.794 0 Z M 709.285 395.438 m -41.938 0 a 41.938 41.938 0 0 1 83.876 0 a 41.938 41.938 0 0 1 -83.876 0 Z" style="" transform="matrix(-0.75603, 0.654537, -0.654537, -0.75603, 1094.308098, 2.647643)" bx:shape="ring 709.285 395.438 41.938 41.938 69.897 69.897 1@fe16ddae"/>
  </g>
</svg>