<?xml version="1.0" encoding="utf-8"?>
<svg id="Layer_1" enable-background="new 0 0 511.448 511.448" height="512" viewBox="0 0 511.448 511.448" width="512" xmlns="http://www.w3.org/2000/svg">
  <g transform="matrix(1, 0, 0, 1, 21.599705, 5.828612)">
    <circle style="" cx="232.635" cy="120.482" r="23.24" transform="matrix(2.075121, 0, 0, 2.179118, -248.239258, -157.885284)"/>
    <circle style="" cx="279.115" cy="186.962" r="23.24" transform="matrix(2.075121, 0, 0, 2.179118, -344.690857, -157.885284)"/>
    <circle style="" cx="325.595" cy="253.442" r="23.24" transform="matrix(2.075121, 0, 0, 2.179118, -441.142487, -157.885284)"/>
  </g>
  <path d="M 436.507 74.94 C 336.594 -24.973 174.867 -24.987 74.94 74.94 C -24.973 174.853 -24.988 336.58 74.94 436.507 C 174.853 536.42 336.579 536.435 436.507 436.507 C 536.421 336.596 536.437 174.868 436.507 74.94 Z M 255.724 469.391 C 137.908 469.391 42.057 373.54 42.057 255.725 C 42.057 137.91 137.908 42.058 255.724 42.058 C 373.54 42.058 469.391 137.909 469.391 255.725 C 469.391 373.541 373.54 469.391 255.724 469.391 Z"/>
</svg>